# This file uses meters as units for non-parametric coordinates.

mtllib NeedleProjectile.mtl
g default
v -27.695596 -4.638635 -14.603964
v -27.695596 -3.945859 -15.963620
v -27.695596 -2.866834 -17.042638
v -27.695596 -1.507184 -17.735409
v -27.695596 -0.000000 -17.974132
v -27.695596 1.507184 -17.735409
v -27.695596 2.866834 -17.042638
v -27.695596 3.945857 -15.963620
v -27.695596 4.638633 -14.603964
v -27.695596 4.877347 -13.096786
v -27.695596 4.638633 -11.589595
v -27.695596 3.945857 -10.229940
v -27.695596 2.866833 -9.150922
v -27.695596 1.507183 -8.458151
v -27.695596 0.000000 -8.219428
v -27.695596 -1.507183 -8.458151
v -27.695596 -2.866832 -9.150922
v -27.695596 -3.945856 -10.229940
v -27.695596 -4.638632 -11.589595
v -27.695596 -4.877346 -13.096786
v 222.479414 -4.638635 -14.603964
v 222.479414 -3.945859 -15.963620
v 222.479414 -2.866834 -17.042638
v 222.479414 -1.507184 -17.735409
v 222.479414 -0.000000 -17.974132
v 222.479414 1.507184 -17.735409
v 222.479414 2.866834 -17.042638
v 222.479414 3.945857 -15.963620
v 222.479414 4.638633 -14.603964
v 222.479414 4.877347 -13.096786
v 222.479414 4.638633 -11.589595
v 222.479414 3.945857 -10.229940
v 222.479414 2.866833 -9.150922
v 222.479414 1.507183 -8.458151
v 222.479414 0.000000 -8.219428
v 222.479414 -1.507183 -8.458151
v 222.479414 -2.866832 -9.150922
v 222.479414 -3.945856 -10.229940
v 222.479414 -4.638632 -11.589595
v 222.479414 -4.877346 -13.096786
v 251.245377 -0.562103 -13.279401
v 251.245377 -0.478153 -13.444166
v 251.245377 -0.347399 -13.574935
v 251.245377 -0.182638 -13.658871
v 251.245377 0.000000 -13.687795
v 251.245377 0.182639 -13.658871
v 251.245377 0.347398 -13.574935
v 251.245377 0.478153 -13.444166
v 251.245377 0.562102 -13.279401
v 251.245377 0.591030 -13.096762
v 251.245377 0.562102 -12.914135
v 251.245377 0.478153 -12.749370
v 251.245377 0.347398 -12.618613
v 251.245377 0.182639 -12.534664
v 251.245377 0.000000 -12.505741
v 251.245377 -0.182638 -12.534664
v 251.245377 -0.347397 -12.618613
v 251.245377 -0.478153 -12.749370
v 251.245377 -0.562101 -12.914135
v 251.245377 -0.591029 -13.096762
v -28.887913 -5.234195 -14.797475
v -28.887913 -4.452473 -16.331695
v -65.471501 -5.234195 -14.797475
v -65.471501 -4.452473 -16.331695
v -28.887913 -3.234910 -17.549246
v -65.471501 -3.234910 -17.549246
v -28.887913 -1.700693 -18.330967
v -65.471501 -1.700693 -18.330967
v -28.887913 -0.000000 -18.600340
v -65.471501 -0.000000 -18.600340
v -28.887913 1.700692 -18.330967
v -65.471501 1.700692 -18.330967
v -28.887913 3.234910 -17.549246
v -65.471501 3.234910 -17.549246
v -28.887913 4.452470 -16.331695
v -65.471501 4.452470 -16.331695
v -28.887913 5.234192 -14.797475
v -65.471501 5.234192 -14.797475
v -28.887913 5.503556 -13.096786
v -65.471501 5.503556 -13.096786
v -28.887913 5.234192 -11.396085
v -65.471501 5.234192 -11.396085
v -28.887913 4.452470 -9.861853
v -65.471501 4.452470 -9.861853
v -28.887913 3.234909 -8.644302
v -65.471501 3.234909 -8.644302
v -28.887913 1.700692 -7.862593
v -65.471501 1.700692 -7.862593
v -28.887913 -0.000000 -7.593208
v -65.471501 -0.000000 -7.593208
v -28.887913 -1.700692 -7.862593
v -65.471501 -1.700692 -7.862593
v -28.887913 -3.234908 -8.644302
v -65.471501 -3.234908 -8.644302
v -28.887913 -4.452470 -9.861853
v -65.471501 -4.452470 -9.861853
v -28.887913 -5.234192 -11.396085
v -65.471501 -5.234192 -11.396085
v -28.887913 -5.503555 -13.096786
v -65.471501 -5.503555 -13.096786
v -65.471501 -0.000001 -13.096774
vt 0.375000 0.312500
vt 0.387500 0.312500
vt 0.400000 0.312500
vt 0.412500 0.312500
vt 0.425000 0.312500
vt 0.437500 0.312500
vt 0.450000 0.312500
vt 0.462500 0.312500
vt 0.475000 0.312500
vt 0.487500 0.312500
vt 0.500000 0.312500
vt 0.512500 0.312500
vt 0.525000 0.312500
vt 0.537500 0.312500
vt 0.550000 0.312500
vt 0.562500 0.312500
vt 0.575000 0.312500
vt 0.587500 0.312500
vt 0.600000 0.312500
vt 0.612500 0.312500
vt 0.625000 0.312500
vt 0.375000 0.687500
vt 0.387500 0.687500
vt 0.400000 0.687500
vt 0.412500 0.687500
vt 0.425000 0.687500
vt 0.437500 0.687500
vt 0.450000 0.687500
vt 0.462500 0.687500
vt 0.475000 0.687500
vt 0.487500 0.687500
vt 0.500000 0.687500
vt 0.512500 0.687500
vt 0.525000 0.687500
vt 0.537500 0.687500
vt 0.550000 0.687500
vt 0.562500 0.687500
vt 0.575000 0.687500
vt 0.587500 0.687500
vt 0.600000 0.687500
vt 0.612500 0.687500
vt 0.625000 0.687500
vt 0.000000 0.000000
vt 1.000000 0.000000
vt 1.000000 1.000000
vt 0.000000 1.000000
vt 0.000000 0.000000
vt 1.000000 0.000000
vt 1.000000 1.000000
vt 0.000000 1.000000
vt 0.000000 0.000000
vt 1.000000 0.000000
vt 1.000000 1.000000
vt 0.000000 1.000000
vt 0.000000 0.000000
vt 1.000000 0.000000
vt 1.000000 1.000000
vt 0.000000 1.000000
vt 0.000000 0.000000
vt 1.000000 0.000000
vt 1.000000 1.000000
vt 0.000000 1.000000
vt 0.000000 0.000000
vt 1.000000 0.000000
vt 1.000000 1.000000
vt 0.000000 1.000000
vt 0.000000 0.000000
vt 1.000000 0.000000
vt 1.000000 1.000000
vt 0.000000 1.000000
vt 0.000000 0.000000
vt 1.000000 0.000000
vt 1.000000 1.000000
vt 0.000000 1.000000
vt 0.000000 0.000000
vt 1.000000 0.000000
vt 1.000000 1.000000
vt 0.000000 1.000000
vt 0.000000 0.000000
vt 1.000000 0.000000
vt 1.000000 1.000000
vt 0.000000 1.000000
vt 0.000000 0.000000
vt 1.000000 0.000000
vt 1.000000 1.000000
vt 0.000000 1.000000
vt 0.000000 0.000000
vt 1.000000 0.000000
vt 1.000000 1.000000
vt 0.000000 1.000000
vt 0.000000 0.000000
vt 1.000000 0.000000
vt 1.000000 1.000000
vt 0.000000 1.000000
vt 0.000000 0.000000
vt 1.000000 0.000000
vt 1.000000 1.000000
vt 0.000000 1.000000
vt 0.000000 0.000000
vt 1.000000 0.000000
vt 1.000000 1.000000
vt 0.000000 1.000000
vt 0.000000 0.000000
vt 1.000000 0.000000
vt 1.000000 1.000000
vt 0.000000 1.000000
vt 0.000000 0.000000
vt 1.000000 0.000000
vt 1.000000 1.000000
vt 0.000000 1.000000
vt 0.000000 0.000000
vt 1.000000 0.000000
vt 1.000000 1.000000
vt 0.000000 1.000000
vt 0.000000 0.000000
vt 1.000000 0.000000
vt 1.000000 1.000000
vt 0.000000 1.000000
vt 0.000000 0.000000
vt 1.000000 0.000000
vt 1.000000 1.000000
vt 0.000000 1.000000
vt 0.000000 0.000000
vt 1.000000 0.000000
vt 0.000000 0.000000
vt 1.000000 0.000000
vt 0.000000 0.000000
vt 1.000000 0.000000
vt 0.000000 0.000000
vt 1.000000 0.000000
vt 0.000000 0.000000
vt 1.000000 0.000000
vt 0.000000 0.000000
vt 1.000000 0.000000
vt 0.000000 0.000000
vt 1.000000 0.000000
vt 0.000000 0.000000
vt 1.000000 0.000000
vt 0.000000 0.000000
vt 1.000000 0.000000
vt 0.000000 0.000000
vt 1.000000 0.000000
vt 0.000000 0.000000
vt 1.000000 0.000000
vt 0.000000 0.000000
vt 1.000000 0.000000
vt 0.000000 0.000000
vt 1.000000 0.000000
vt 0.000000 0.000000
vt 1.000000 0.000000
vt 0.000000 0.000000
vt 1.000000 0.000000
vt 0.000000 0.000000
vt 1.000000 0.000000
vt 0.000000 0.000000
vt 1.000000 0.000000
vt 0.000000 0.000000
vt 1.000000 0.000000
vt 0.000000 0.000000
vt 1.000000 0.000000
vt 0.000000 0.000000
vt 1.000000 0.000000
vt 0.000000 0.000000
vt 1.000000 0.000000
vt 1.000000 1.000000
vt 0.000000 1.000000
vt 0.000000 0.000000
vt 1.000000 0.000000
vt 1.000000 1.000000
vt 0.000000 1.000000
vt 0.000000 0.000000
vt 1.000000 0.000000
vt 1.000000 1.000000
vt 0.000000 1.000000
vt 0.000000 0.000000
vt 1.000000 0.000000
vt 1.000000 1.000000
vt 0.000000 1.000000
vt 0.000000 0.000000
vt 1.000000 0.000000
vt 1.000000 1.000000
vt 0.000000 1.000000
vt 0.000000 0.000000
vt 1.000000 0.000000
vt 1.000000 1.000000
vt 0.000000 1.000000
vt 0.000000 0.000000
vt 1.000000 0.000000
vt 1.000000 1.000000
vt 0.000000 1.000000
vt 0.000000 0.000000
vt 1.000000 0.000000
vt 1.000000 1.000000
vt 0.000000 1.000000
vt 0.000000 0.000000
vt 1.000000 0.000000
vt 1.000000 1.000000
vt 0.000000 1.000000
vt 0.000000 0.000000
vt 1.000000 0.000000
vt 1.000000 1.000000
vt 0.000000 1.000000
vt 0.000000 0.000000
vt 1.000000 0.000000
vt 1.000000 1.000000
vt 0.000000 1.000000
vt 0.000000 0.000000
vt 1.000000 0.000000
vt 1.000000 1.000000
vt 0.000000 1.000000
vt 0.000000 0.000000
vt 1.000000 0.000000
vt 1.000000 1.000000
vt 0.000000 1.000000
vt 0.000000 0.000000
vt 1.000000 0.000000
vt 1.000000 1.000000
vt 0.000000 1.000000
vt 0.000000 0.000000
vt 1.000000 0.000000
vt 1.000000 1.000000
vt 0.000000 1.000000
vt 0.000000 0.000000
vt 1.000000 0.000000
vt 1.000000 1.000000
vt 0.000000 1.000000
vt 0.000000 0.000000
vt 1.000000 0.000000
vt 1.000000 1.000000
vt 0.000000 1.000000
vt 0.000000 0.000000
vt 1.000000 0.000000
vt 1.000000 1.000000
vt 0.000000 1.000000
vt 0.000000 0.000000
vt 1.000000 0.000000
vt 1.000000 1.000000
vt 0.000000 1.000000
vt 0.000000 0.000000
vt 1.000000 0.000000
vt 1.000000 1.000000
vt 0.000000 1.000000
vt 0.000000 1.000000
vn 0.000000 -0.951057 -0.309016
vn 0.000000 -0.809017 -0.587785
vn 0.000000 -0.809017 -0.587785
vn 0.000000 -0.951057 -0.309016
vn 0.000000 -0.587783 -0.809019
vn 0.000000 -0.587783 -0.809019
vn 0.000000 -0.309018 -0.951056
vn 0.000000 -0.309018 -0.951056
vn 0.000000 0.000000 -1.000000
vn 0.000000 0.000000 -1.000000
vn 0.000000 0.309018 -0.951056
vn 0.000000 0.309018 -0.951056
vn 0.000000 0.587783 -0.809019
vn 0.000000 0.587783 -0.809019
vn 0.000000 0.809017 -0.587785
vn 0.000000 0.809017 -0.587785
vn 0.000000 0.951057 -0.309017
vn 0.000000 0.951057 -0.309017
vn 0.000000 1.000000 0.000000
vn 0.000000 1.000000 0.000000
vn 0.000000 0.951057 0.309016
vn 0.000000 0.951057 0.309016
vn 0.000000 0.809017 0.587785
vn 0.000000 0.809017 0.587785
vn 0.000000 0.587783 0.809019
vn 0.000000 0.587783 0.809019
vn 0.000000 0.309018 0.951056
vn 0.000000 0.309018 0.951056
vn 0.000000 0.000000 1.000000
vn 0.000000 0.000000 1.000000
vn 0.000000 -0.309018 0.951056
vn 0.000000 -0.309018 0.951056
vn 0.000000 -0.587783 0.809019
vn 0.000000 -0.587783 0.809019
vn 0.000000 -0.809017 0.587785
vn 0.000000 -0.809017 0.587785
vn 0.000000 -0.951057 0.309016
vn 0.000000 -0.951057 0.309016
vn 0.000000 -1.000000 0.000001
vn 0.000000 -1.000000 0.000001
vn 0.145604 -0.881512 -0.449150
vn 0.145604 -0.881512 -0.449150
vn 0.145604 -0.881512 -0.449150
vn 0.145604 -0.881512 -0.449150
vn 0.145604 -0.699573 -0.699569
vn 0.145604 -0.699573 -0.699569
vn 0.145604 -0.699573 -0.699569
vn 0.145604 -0.699573 -0.699569
vn 0.145604 -0.449143 -0.881516
vn 0.145604 -0.449143 -0.881516
vn 0.145604 -0.449143 -0.881516
vn 0.145604 -0.449143 -0.881516
vn 0.145604 -0.154770 -0.977162
vn 0.145604 -0.154770 -0.977162
vn 0.145604 -0.154770 -0.977162
vn 0.145604 -0.154770 -0.977162
vn 0.145604 0.154770 -0.977162
vn 0.145604 0.154770 -0.977162
vn 0.145604 0.154770 -0.977162
vn 0.145604 0.154770 -0.977162
vn 0.145604 0.449144 -0.881515
vn 0.145604 0.449144 -0.881515
vn 0.145604 0.449144 -0.881515
vn 0.145604 0.449144 -0.881515
vn 0.145604 0.699574 -0.699569
vn 0.145604 0.699574 -0.699569
vn 0.145604 0.699574 -0.699569
vn 0.145604 0.699574 -0.699569
vn 0.145604 0.881513 -0.449149
vn 0.145604 0.881513 -0.449149
vn 0.145604 0.881513 -0.449149
vn 0.145604 0.881513 -0.449149
vn 0.145604 0.977162 -0.154768
vn 0.145604 0.977162 -0.154768
vn 0.145604 0.977162 -0.154768
vn 0.145604 0.977162 -0.154768
vn 0.145604 0.977162 0.154768
vn 0.145604 0.977162 0.154768
vn 0.145604 0.977162 0.154768
vn 0.145604 0.977162 0.154768
vn 0.145604 0.881512 0.449150
vn 0.145604 0.881512 0.449150
vn 0.145604 0.881512 0.449150
vn 0.145603 0.881512 0.449150
vn 0.145603 0.699570 0.699572
vn 0.145604 0.699570 0.699572
vn 0.145604 0.699570 0.699572
vn 0.145604 0.699570 0.699572
vn 0.145603 0.449150 0.881513
vn 0.145603 0.449150 0.881513
vn 0.145603 0.449150 0.881512
vn 0.145603 0.449150 0.881513
vn 0.145603 0.154770 0.977162
vn 0.145603 0.154770 0.977162
vn 0.145603 0.154770 0.977162
vn 0.145603 0.154770 0.977162
vn 0.145603 -0.154770 0.977162
vn 0.145603 -0.154770 0.977162
vn 0.145603 -0.154770 0.977162
vn 0.145603 -0.154770 0.977162
vn 0.145603 -0.449150 0.881512
vn 0.145603 -0.449150 0.881512
vn 0.145603 -0.449150 0.881512
vn 0.145603 -0.449150 0.881512
vn 0.145604 -0.699570 0.699572
vn 0.145604 -0.699570 0.699572
vn 0.145604 -0.699570 0.699572
vn 0.145604 -0.699570 0.699572
vn 0.145604 -0.881513 0.449149
vn 0.145604 -0.881513 0.449149
vn 0.145604 -0.881513 0.449149
vn 0.145604 -0.881513 0.449150
vn 0.145604 -0.977162 0.154768
vn 0.145604 -0.977162 0.154768
vn 0.145604 -0.977162 0.154768
vn 0.145604 -0.977162 0.154768
vn 0.145604 -0.977162 -0.154768
vn 0.145604 -0.977162 -0.154768
vn 0.145604 -0.977162 -0.154768
vn 0.145604 -0.977162 -0.154768
vn 0.000000 -0.891007 -0.453989
vn 0.000000 -0.891007 -0.453989
vn 0.000000 -0.891007 -0.453989
vn 0.000000 -0.891007 -0.453989
vn 0.000000 -0.707103 -0.707110
vn 0.000000 -0.707103 -0.707110
vn 0.000000 -0.707103 -0.707110
vn 0.000000 -0.707103 -0.707110
vn 0.000000 -0.453990 -0.891007
vn 0.000000 -0.453990 -0.891007
vn 0.000000 -0.453990 -0.891007
vn 0.000000 -0.453990 -0.891007
vn 0.000000 -0.156440 -0.987687
vn 0.000000 -0.156440 -0.987687
vn 0.000000 -0.156440 -0.987687
vn 0.000000 -0.156440 -0.987687
vn 0.000000 0.156440 -0.987687
vn 0.000000 0.156440 -0.987687
vn 0.000000 0.156440 -0.987687
vn 0.000000 0.156440 -0.987687
vn 0.000000 0.453990 -0.891007
vn 0.000000 0.453990 -0.891007
vn 0.000000 0.453990 -0.891007
vn 0.000000 0.453990 -0.891007
vn 0.000000 0.707104 -0.707110
vn 0.000000 0.707104 -0.707110
vn 0.000000 0.707104 -0.707110
vn 0.000000 0.707104 -0.707110
vn 0.000000 0.891007 -0.453989
vn 0.000000 0.891007 -0.453989
vn 0.000000 0.891007 -0.453989
vn 0.000000 0.891007 -0.453989
vn 0.000000 0.987688 -0.156435
vn 0.000000 0.987688 -0.156435
vn 0.000000 0.987688 -0.156435
vn 0.000000 0.987688 -0.156435
vn 0.000000 0.987688 0.156434
vn 0.000000 0.987688 0.156434
vn 0.000000 0.987688 0.156434
vn 0.000000 0.987688 0.156434
vn 0.000000 0.891008 0.453987
vn 0.000000 0.891008 0.453987
vn 0.000000 0.891008 0.453987
vn 0.000000 0.891008 0.453987
vn 0.000000 0.707104 0.707110
vn 0.000000 0.707104 0.707110
vn 0.000000 0.707104 0.707110
vn 0.000000 0.707104 0.707110
vn 0.000000 0.453984 0.891010
vn 0.000000 0.453984 0.891010
vn 0.000000 0.453984 0.891010
vn 0.000000 0.453984 0.891010
vn 0.000000 0.156447 0.987686
vn 0.000000 0.156447 0.987686
vn 0.000000 0.156447 0.987686
vn 0.000000 0.156447 0.987686
vn 0.000000 -0.156447 0.987686
vn 0.000000 -0.156447 0.987686
vn 0.000000 -0.156447 0.987686
vn 0.000000 -0.156447 0.987686
vn 0.000000 -0.453985 0.891010
vn 0.000000 -0.453985 0.891010
vn 0.000000 -0.453985 0.891010
vn 0.000000 -0.453985 0.891010
vn 0.000000 -0.707103 0.707110
vn 0.000000 -0.707103 0.707110
vn 0.000000 -0.707103 0.707110
vn 0.000000 -0.707103 0.707110
vn 0.000000 -0.891008 0.453987
vn 0.000000 -0.891008 0.453987
vn 0.000000 -0.891008 0.453987
vn 0.000000 -0.891008 0.453987
vn 0.000000 -0.987689 0.156433
vn 0.000000 -0.987689 0.156433
vn 0.000000 -0.987689 0.156433
vn 0.000000 -0.987689 0.156433
vn 0.000000 -0.987689 -0.156433
vn 0.000000 -0.987689 -0.156433
vn 0.000000 -0.987689 -0.156433
vn 0.000000 -0.987689 -0.156433
vn 0.460470 -0.790924 -0.402996
vn 0.460470 -0.790924 -0.402996
vn 0.460470 -0.790924 -0.402996
vn 0.460470 -0.790924 -0.402996
vn 0.460468 -0.627678 -0.627686
vn 0.460468 -0.627678 -0.627686
vn 0.460468 -0.627678 -0.627686
vn 0.460468 -0.627678 -0.627686
vn 0.460470 -0.402997 -0.790924
vn 0.460470 -0.402997 -0.790924
vn 0.460470 -0.402997 -0.790924
vn 0.460470 -0.402997 -0.790924
vn 0.460467 -0.138868 -0.876747
vn 0.460467 -0.138868 -0.876747
vn 0.460467 -0.138868 -0.876747
vn 0.460467 -0.138868 -0.876747
vn 0.460469 0.138868 -0.876746
vn 0.460469 0.138868 -0.876746
vn 0.460469 0.138868 -0.876746
vn 0.460469 0.138868 -0.876746
vn 0.460467 0.402994 -0.790927
vn 0.460467 0.402994 -0.790927
vn 0.460467 0.402994 -0.790927
vn 0.460467 0.402994 -0.790927
vn 0.460469 0.627680 -0.627683
vn 0.460469 0.627680 -0.627683
vn 0.460469 0.627680 -0.627683
vn 0.460469 0.627680 -0.627683
vn 0.460471 0.790926 -0.402993
vn 0.460471 0.790926 -0.402993
vn 0.460471 0.790926 -0.402993
vn 0.460471 0.790926 -0.402993
vn 0.460470 0.876746 -0.138864
vn 0.460470 0.876746 -0.138864
vn 0.460470 0.876746 -0.138864
vn 0.460470 0.876746 -0.138864
vn 0.460470 0.876747 0.138863
vn 0.460470 0.876746 0.138863
vn 0.460470 0.876746 0.138863
vn 0.460470 0.876746 0.138863
vn 0.460472 0.790926 0.402992
vn 0.460472 0.790926 0.402992
vn 0.460472 0.790926 0.402992
vn 0.460472 0.790926 0.402992
vn 0.460472 0.627674 0.627687
vn 0.460472 0.627674 0.627687
vn 0.460472 0.627674 0.627687
vn 0.460472 0.627674 0.627687
vn 0.460473 0.402993 0.790924
vn 0.460473 0.402993 0.790924
vn 0.460473 0.402993 0.790924
vn 0.460473 0.402993 0.790924
vn 0.460474 0.138871 0.876743
vn 0.460475 0.138871 0.876743
vn 0.460474 0.138871 0.876743
vn 0.460475 0.138871 0.876743
vn 0.460475 -0.138872 0.876742
vn 0.460475 -0.138872 0.876742
vn 0.460475 -0.138872 0.876742
vn 0.460475 -0.138872 0.876742
vn 0.460469 -0.402990 0.790928
vn 0.460469 -0.402990 0.790928
vn 0.460469 -0.402990 0.790928
vn 0.460469 -0.402990 0.790928
vn 0.460474 -0.627677 0.627683
vn 0.460473 -0.627677 0.627683
vn 0.460473 -0.627677 0.627683
vn 0.460473 -0.627677 0.627683
vn 0.460472 -0.790926 0.402991
vn 0.460472 -0.790926 0.402992
vn 0.460472 -0.790926 0.402992
vn 0.460472 -0.790926 0.402992
vn 0.460470 -0.876746 0.138863
vn 0.460470 -0.876746 0.138863
vn 0.460470 -0.876746 0.138863
vn 0.460470 -0.876746 0.138863
vn 0.460470 -0.876746 -0.138864
vn 0.460470 -0.876746 -0.138864
vn 0.460470 -0.876746 -0.138864
vn 0.460470 -0.876746 -0.138864
vn -1.000000 0.000000 -0.000010
vn -1.000000 -0.000000 0.000000
vn -1.000000 0.000000 -0.000002
vn -1.000000 0.000000 -0.000010
vn -1.000000 0.000000 -0.000006
vn -1.000000 -0.000000 0.000006
vn -1.000000 0.000000 -0.000000
vn -1.000000 -0.000000 0.000000
vn -1.000000 -0.000000 0.000010
vn -1.000000 -0.000000 0.000005
vn -1.000000 -0.000000 0.000002
vn -1.000000 0.000000 -0.000006
vn -1.000000 -0.000000 0.000000
vn -1.000000 -0.000000 0.000000
vn -1.000000 -0.000000 0.000010
vn -1.000000 -0.000000 0.000003
vn -1.000000 0.000000 -0.000006
vn -1.000000 0.000000 -0.000002
vn -1.000000 -0.000000 0.000000
vn -1.000000 -0.000000 0.000005
vn -1.000000 -0.000000 0.000002
s 1
g pCylinder1
usemtl initialShadingGroup
f 1/1/1 2/2/2 22/23/3 21/22/4
f 2/2/2 3/3/5 23/24/6 22/23/3
f 3/3/5 4/4/7 24/25/8 23/24/6
f 4/4/7 5/5/9 25/26/10 24/25/8
f 5/5/9 6/6/11 26/27/12 25/26/10
f 6/6/11 7/7/13 27/28/14 26/27/12
f 7/7/13 8/8/15 28/29/16 27/28/14
f 8/8/15 9/9/17 29/30/18 28/29/16
f 9/9/17 10/10/19 30/31/20 29/30/18
f 10/10/19 11/11/21 31/32/22 30/31/20
f 11/11/21 12/12/23 32/33/24 31/32/22
f 12/12/23 13/13/25 33/34/26 32/33/24
f 13/13/25 14/14/27 34/35/28 33/34/26
f 14/14/27 15/15/29 35/36/30 34/35/28
f 15/15/29 16/16/31 36/37/32 35/36/30
f 16/16/31 17/17/33 37/38/34 36/37/32
f 17/17/33 18/18/35 38/39/36 37/38/34
f 18/18/35 19/19/37 39/40/38 38/39/36
f 19/19/37 20/20/39 40/41/40 39/40/38
f 20/20/39 1/21/1 21/42/4 40/41/40
s off
f 21/43/41 22/44/42 42/45/43 41/46/44
f 22/47/45 23/48/46 43/49/47 42/50/48
f 23/51/49 24/52/50 44/53/51 43/54/52
f 24/55/53 25/56/54 45/57/55 44/58/56
f 25/59/57 26/60/58 46/61/59 45/62/60
f 26/63/61 27/64/62 47/65/63 46/66/64
f 27/67/65 28/68/66 48/69/67 47/70/68
f 28/71/69 29/72/70 49/73/71 48/74/72
f 29/75/73 30/76/74 50/77/75 49/78/76
f 30/79/77 31/80/78 51/81/79 50/82/80
f 31/83/81 32/84/82 52/85/83 51/86/84
f 32/87/85 33/88/86 53/89/87 52/90/88
f 33/91/89 34/92/90 54/93/91 53/94/92
f 34/95/93 35/96/94 55/97/95 54/98/96
f 35/99/97 36/100/98 56/101/99 55/102/100
f 36/103/101 37/104/102 57/105/103 56/106/104
f 37/107/105 38/108/106 58/109/107 57/110/108
f 38/111/109 39/112/110 59/113/111 58/114/112
f 39/115/113 40/116/114 60/117/115 59/118/116
f 40/119/117 21/120/118 41/121/119 60/122/120
f 62/163/121 61/164/122 63/165/123 64/166/124
f 65/167/125 62/168/126 64/169/127 66/170/128
f 67/171/129 65/172/130 66/173/131 68/174/132
f 69/175/133 67/176/134 68/177/135 70/178/136
f 71/179/137 69/180/138 70/181/139 72/182/140
f 73/183/141 71/184/142 72/185/143 74/186/144
f 75/187/145 73/188/146 74/189/147 76/190/148
f 77/191/149 75/192/150 76/193/151 78/194/152
f 79/195/153 77/196/154 78/197/155 80/198/156
f 81/199/157 79/200/158 80/201/159 82/202/160
f 83/203/161 81/204/162 82/205/163 84/206/164
f 85/207/165 83/208/166 84/209/167 86/210/168
f 87/211/169 85/212/170 86/213/171 88/214/172
f 89/215/173 87/216/174 88/217/175 90/218/176
f 91/219/177 89/220/178 90/221/179 92/222/180
f 93/223/181 91/224/182 92/225/183 94/226/184
f 95/227/185 93/228/186 94/229/187 96/230/188
f 97/231/189 95/232/190 96/233/191 98/234/192
f 99/235/193 97/236/194 98/237/195 100/238/196
f 61/239/197 99/240/198 100/241/199 63/242/200
f 2/123/201 1/124/202 61/164/203 62/163/204
f 3/125/205 2/126/206 62/168/207 65/167/208
f 4/127/209 3/128/210 65/172/211 67/171/212
f 5/129/213 4/130/214 67/176/215 69/175/216
f 6/131/217 5/132/218 69/180/219 71/179/220
f 7/133/221 6/134/222 71/184/223 73/183/224
f 8/135/225 7/136/226 73/188/227 75/187/228
f 9/137/229 8/138/230 75/192/231 77/191/232
f 10/139/233 9/140/234 77/196/235 79/195/236
f 11/141/237 10/142/238 79/200/239 81/199/240
f 12/143/241 11/144/242 81/204/243 83/203/244
f 13/145/245 12/146/246 83/208/247 85/207/248
f 14/147/249 13/148/250 85/212/251 87/211/252
f 15/149/253 14/150/254 87/216/255 89/215/256
f 16/151/257 15/152/258 89/220/259 91/219/260
f 17/153/261 16/154/262 91/224/263 93/223/264
f 18/155/265 17/156/266 93/228/267 95/227/268
f 19/157/269 18/158/270 95/232/271 97/231/272
f 20/159/273 19/160/274 97/236/275 99/235/276
f 1/161/277 20/162/278 99/240/279 61/239/280
s 2
f 82/202/281 101/243/282 84/206/283
f 64/166/284 63/242/285 101/243/282
f 101/243/282 63/242/285 100/238/286
f 101/243/282 100/238/286 98/234/287
f 101/243/282 98/234/287 96/230/288
f 101/243/282 96/230/288 94/226/289
f 101/243/282 94/226/289 92/222/290
f 101/243/282 92/222/290 90/218/291
f 101/243/282 90/218/291 88/214/292
f 101/243/282 88/214/292 86/210/293
f 101/243/282 86/210/293 84/206/283
f 80/198/294 101/243/282 82/202/281
f 78/194/295 101/243/282 80/198/294
f 76/190/296 101/243/282 78/194/295
f 74/186/297 101/243/282 76/190/296
f 72/182/298 101/243/282 74/186/297
f 70/178/299 101/243/282 72/182/298
f 68/174/300 101/243/282 70/178/299
f 66/170/301 101/243/282 68/174/300
f 64/166/284 101/243/282 66/170/301
